# xmcd
#
# Track frame offsets:
#	150
#	11590
#	23281
#	30332
#	43273
#	55833
#	66338
#	81513
#	98640
#	107965
#	125367
#	134857
#	149242
#	161521
#	171523
#	182532
#	190676
#	199613
#	211592
#	222711
#	237137
#	248966
#	265488
#	275457
#	285306
#	300849
#	313648
#	328392
#	340749
#
# Disc length: 4776 seconds
# Revision: 0
# Processed by: cddbd v1.5.2PL0 Copyright (c) Steve Scherf et al.
# Submitted via: dBpowerAMP V12.0
#
DISCID=b112a61d
DTITLE=Snooks Eaglin - New Orleans Street Singer - That's All Right
DYEAR=1959
DGENRE=Blues
TTITLE0=Careless Love
TTITLE1=Come Back, Baby
TTITLE2=High Society
TTITLE3=Let Me Go Home, Whiskey
TTITLE4=Trouble In Mind
TTITLE5=Saint James Infirmary
TTITLE6=I Got Questionnaire
TTITLE7=The Drifter Blues
TTITLE8=Rock Island Line
TTITLE9=Every Day I Have The Blues
TTITLE10=Sophisticated Blues
TTITLE11=See See Rider
TTITLE12=One Scotch, One Bourbon, One Beer
TTITLE13=A Thousand Miles Away From Home
TTITLE14=I'm Looking For A Woman
TTITLE15=Look Down That Lonesome Road
TTITLE16=Mama Don't You Tear My Clothes
TTITLE17=Mailman Passed
TTITLE18=I'm A Country Boy
TTITLE19=I Got A Woman
TTITLE20=Alberta
TTITLE21=Brown Skinned Woman
TTITLE22=Don't You Lie To Me
TTITLE23=That's All Right
TTITLE24=Well I Had Fun (Goin' Down Slow)
TTITLE25=Bottle Up And Go
TTITLE26=The Walkin' Blues
TTITLE27=One More Drink
TTITLE28=Fly Right Baby
EXTD=
EXTT0=
EXTT1=
EXTT2=
EXTT3=
EXTT4=
EXTT5=
EXTT6=
EXTT7=
EXTT8=
EXTT9=
EXTT10=
EXTT11=
EXTT12=
EXTT13=
EXTT14=
EXTT15=
EXTT16=
EXTT17=
EXTT18=
EXTT19=
EXTT20=
EXTT21=
EXTT22=
EXTT23=
EXTT24=
EXTT25=
EXTT26=
EXTT27=
EXTT28=
PLAYORDER=
